<?xml version="1.0" standalone="no"?><!DOCTYPE svg PUBLIC "-//W3C//DTD SVG 1.1//EN" "http://www.w3.org/Graphics/SVG/1.1/DTD/svg11.dtd"><svg t="1666084430934" class="icon" viewBox="0 0 1024 1024" version="1.1" xmlns="http://www.w3.org/2000/svg" p-id="19133" xmlns:xlink="http://www.w3.org/1999/xlink" width="64" height="64"><path d="M768.995971 1024a213.208837 213.208837 0 1 1 213.194608-213.137696 213.194609 213.194609 0 0 1-213.194608 213.137696z m42.456801-306.616646a35.669974 35.669974 0 0 0-35.69843-35.712658h-0.184966a35.669974 35.669974 0 0 0-35.69843 35.712658v93.47895l-46.682562 45.672363a35.570377 35.570377 0 0 0 0 50.367653l0.128053 0.142282a35.712658 35.712658 0 0 0 50.495707 0l56.144282-54.77838a37.320439 37.320439 0 0 0 5.46361-7.256357 35.570377 35.570377 0 0 0 6.032736-19.919411v-107.7071zM533.135918 493.1477a130.671335 130.671335 0 0 0 41.418146 100.308462 265.483062 265.483062 0 0 0-55.489787 63.030708 214.019842 214.019842 0 0 1-69.717938-163.33917c0-87.076282 46.497596-135.025149 80.431735-172.587467 32.08448-35.428095 51.448993-56.912602 51.448993-109.272196a107.664416 107.664416 0 0 0-40.948618-91.202446c-29.551869-22.907322-74.47014-35.570377-126.957788-35.570376a208.328581 208.328581 0 0 0-126.488259 35.570376 107.664416 107.664416 0 0 0-40.948617 91.202446c0 51.93275 19.165319 72.990413 50.908323 107.991663 34.147561 37.562318 80.972405 85.511185 80.972405 173.868 0 137.01709-105.715159 226.085313-252.108601 228.361818v33.293872h352.459747l-0.668723 84.372933H41.980158V692.199528c0-35.85494 18.15512-54.920661 53.156371-54.920662 21.086119 0 25.69604-0.142282 25.69604-0.142281 95.684313 0 173.25619-47.522023 173.25619-143.988885 0-119.516465-131.880728-123.500347-131.880728-281.859663 0-139.862721 112.40239-211.145755 251.169543-211.145755h0.483757c138.71024 0 251.169543 71.283035 251.169543 211.145755 0 158.359316-131.894956 164.192858-131.894956 281.859663z m2.034625 487.741004H43.004585v-84.94206h447.304599a194.456135 194.456135 0 0 0 44.861359 84.94206z" fill="#1296db" p-id="19134"></path></svg>