<?xml version="1.0" standalone="no"?><!DOCTYPE svg PUBLIC "-//W3C//DTD SVG 1.1//EN" "http://www.w3.org/Graphics/SVG/1.1/DTD/svg11.dtd"><svg t="1666079519285" class="icon" viewBox="0 0 1024 1024" version="1.1" xmlns="http://www.w3.org/2000/svg" p-id="14591" xmlns:xlink="http://www.w3.org/1999/xlink" width="64" height="64"><path d="M204.8 611.456c-112.64 0-204.8 92.16-204.8 204.8 0 112.576 92.16 204.736 204.8 204.736 112.64 0 204.8-92.16 204.8-204.8 0-112.64-92.16-204.8-204.8-204.8z m0 358.336a152.96 152.96 0 0 1-153.6-153.6 152.96 152.96 0 0 1 153.6-153.6 152.96 152.96 0 0 1 153.6 153.6 152.96 152.96 0 0 1-153.6 153.6z m819.072-358.4c0-112.64-92.16-204.736-204.8-204.736-30.72 0-61.44 6.848-88.704 20.48l78.464-78.528c37.568-37.504 61.44-88.704 61.44-143.36 0-112.576-85.632-196.608-198.208-196.608-58.048 0-108.288 21.76-145.856 54.592l37.568 37.568C590.08 79.552 631.04 63.232 675.456 63.232c81.92-6.848 143.616 53.312 143.616 138.624 0 40.96-17.024 81.92-44.352 109.248L614.336 471.488v-13.632c0-112.64-92.16-204.8-204.8-204.8h-13.632l167.872-152.32-37.568-37.504-253.184 241.024c-44.352 37.568-68.224 92.16-68.224 153.6 0 112.64 92.16 204.8 204.8 204.8 34.048 0 64.768-6.848 92.096-20.48l-20.48 20.48a199.68 199.68 0 0 0-71.68 153.6c0 112.576 92.16 204.736 204.8 204.736 57.984 0 109.184-23.936 143.36-61.44l204.736-204.8c37.568-34.112 61.44-85.312 61.44-143.36z m-767.936-153.6c0-40.896 13.696-75.008 40.96-102.336l13.696-13.632c27.264-23.936 61.44-37.568 98.944-37.568a152.96 152.96 0 0 1 153.6 153.6 152.96 152.96 0 0 1-153.6 153.6 152.96 152.96 0 0 1-153.6-153.6z m358.4 512a152.96 152.96 0 0 1-153.6-153.6c0-37.504 13.632-75.072 37.568-102.4l13.632-13.632c27.328-23.872 61.44-37.568 98.944-37.568a152.96 152.96 0 0 1 153.6 153.6c0 85.312-64.832 153.6-150.144 153.6z m204.8-139.968v-13.632c0-112.64-92.16-204.8-204.8-204.8h-13.696l109.248-109.184a151.808 151.808 0 0 1 109.184-44.352 152.96 152.96 0 0 1 153.6 153.6c0 40.96-17.088 81.92-44.352 109.184l-109.248 109.184z m-409.6-474.368c-57.984 0-102.4 44.352-102.4 102.4 0 57.984 44.416 102.4 102.4 102.4 58.048 0 102.4-44.416 102.4-102.4 0-58.048-44.352-102.4-102.4-102.4z m0 153.6a52.48 52.48 0 0 1-51.2-51.2c0-27.328 23.936-51.2 51.2-51.2 27.328 0 51.2 23.872 51.2 51.2a52.48 52.48 0 0 1-51.2 51.2z m-204.8 204.8c-57.984 0-102.4 44.352-102.4 102.4 0 57.984 44.416 102.336 102.4 102.336 58.048 0 102.4-44.352 102.4-102.4 0-57.984-44.352-102.4-102.4-102.4z m0 153.536a52.48 52.48 0 0 1-51.2-51.2c0-27.328 23.936-51.2 51.2-51.2 27.328 0 51.2 23.872 51.2 51.2a52.48 52.48 0 0 1-51.2 51.2z m409.6-153.6c-58.048 0-102.4 44.416-102.4 102.4 0 58.048 44.352 102.4 102.4 102.4 57.984 0 102.4-44.352 102.4-102.4 0-57.984-44.416-102.4-102.4-102.4z m0 153.6a52.48 52.48 0 0 1-51.2-51.2c0-27.328 23.872-51.2 51.2-51.2 27.264 0 51.2 23.872 51.2 51.2a52.48 52.48 0 0 1-51.2 51.2z" fill="#ffffff" p-id="14592"></path></svg>