<?xml version="1.0" standalone="no"?><!DOCTYPE svg PUBLIC "-//W3C//DTD SVG 1.1//EN" "http://www.w3.org/Graphics/SVG/1.1/DTD/svg11.dtd"><svg t="1666079225059" class="icon" viewBox="0 0 1024 1024" version="1.1" xmlns="http://www.w3.org/2000/svg" p-id="6058" width="64" height="64" xmlns:xlink="http://www.w3.org/1999/xlink"><path d="M829.704852 153.073304c-6.578836-24.328082-26.735921-41.328267-51.944046-41.328267L251.993245 111.745037c-25.208125 0-49.387827 17.000186-55.966663 41.328267L103.784738 455.773418l0 3.179412c0 51.570539 35.122939 92.953042 83.808778 107.778702l0 279.338033c0 35.264155 25.753547 63.854307 57.493435 63.854307l523.616572 0c31.739888 0 57.432037-28.590152 57.432037-63.854307L826.13556 564.930513c56.613392-8.956999 91.790566-49.988508 91.790566-105.931634l0-3.164063L829.704852 153.073304zM778.245853 830.105988c0 17.632589-14.264888 31.927153-31.896454 31.927153l-478.907301 0c-17.631566 0-31.957853-14.294564-31.957853-31.927153l0-257.903861c15.346523-1.122567 30.289863-5.205559 43.899836-11.855002 15.963577-8.948813 32.658817-22.246677 44.445258-38.661531 21.887496 28.263717 57.283658 46.52564 96.006588 46.52564 39.269375 0 73.449849-19.135826 95.28311-48.615231 21.887496 28.841885 55.818283 47.485501 94.791923 47.485501 39.159882 0 74.844615-18.925025 96.701412-48.124044 13.031804 17.304108 32.385595 30.875195 48.349171 39.105646 7.849782 2.736321 15.57472 4.879124 23.284309 6.359848L778.245853 830.105988zM804.202015 518.816243c-41.919738 1.995447-67.190285-45.941332-70.355371-59.488883-1.683339-7.233752-10.103102-12.347213-17.522072-12.347213l-18.98847 0c-7.919367 0-14.652721 5.830799-15.790638 13.687744-5.597485 38.756699-35.247782 58.055231-70.885444 58.055231-35.638685 0-65.290005-19.298532-70.886467-58.055231-1.137916-7.856945-7.871271-13.687744-15.790638-13.687744l-18.209734 0c-7.919367 0-14.652721 5.830799-15.790638 13.687744-5.597485 38.700417-35.247782 57.775868-70.885444 57.775868-36.231179 0-65.397453-19.067264-70.901817-57.743122-1.122567-7.873318-7.855922-13.719466-15.808034-13.719466l-18.161638 0c-7.950066 0-12.518105 5.862521-13.827937 13.703093-5.712095 34.187637-48.287773 62.795185-70.88442 62.630433-40.549531-0.302899-71.252811-24.794709-72.763211-61.413721l88.016613-296.355615c0.943488-3.476171 3.625574-5.90857 7.226588-5.90857l525.768585 0c3.601015 0 6.78145 2.4017 7.716752 5.89322l88.517009 296.387337C872.312252 503.889275 836.55691 517.28026 804.202015 518.816243z" p-id="6059" fill="#ffffff"></path></svg>