<?xml version="1.0" standalone="no"?><!DOCTYPE svg PUBLIC "-//W3C//DTD SVG 1.1//EN" "http://www.w3.org/Graphics/SVG/1.1/DTD/svg11.dtd"><svg t="1666077084887" class="icon" viewBox="0 0 1050 1024" version="1.1" xmlns="http://www.w3.org/2000/svg" p-id="3846" xmlns:xlink="http://www.w3.org/1999/xlink" width="205.078125" height="200"><path d="M969.198389 622.415919a183.779086 183.779086 0 0 1-183.332765 317.517751A444.299067 444.299067 0 0 1 525.083102 1023.999475c-97.350407 0-187.454667-31.163682-260.782523-84.065805a183.779086 183.779086 0 0 1-183.332765-317.517751A451.623976 451.623976 0 0 1 78.762465 577.678838C78.762465 396.525168 186.693297 240.575487 341.776591 170.608164a183.779086 183.779086 0 0 1 366.613022 0C863.499161 240.575487 971.403738 396.525168 971.403738 577.678838c0 15.096139-0.76137 30.008499-2.205349 44.737081z m-103.047558-31.636257a341.251508 341.251508 0 0 0-181.836279-315.049861A183.700323 183.700323 0 0 1 525.083102 367.645598a183.700323 183.700323 0 0 1-159.231451-91.942052 341.251508 341.251508 0 0 0-181.836278 315.049862A183.700323 183.700323 0 0 1 343.194315 682.695459a183.700323 183.700323 0 0 1 0 183.831594A339.728767 339.728767 0 0 0 525.083102 918.982855a339.728767 339.728767 0 0 0 181.888786-52.455802 183.700323 183.700323 0 0 1 0-183.831594 183.700323 183.700323 0 0 1 159.178943-91.915797zM525.083102 262.628977a78.762465 78.762465 0 1 0 0-157.52493 78.762465 78.762465 0 0 0 0 157.52493zM252.249922 735.203769a78.762465 78.762465 0 1 0-136.41659 78.762465 78.762465 78.762465 0 0 0 136.41659-78.762465z m545.66636 0a78.762465 78.762465 0 1 0 136.416589 78.762465 78.762465 78.762465 0 0 0-136.416589-78.762465z" p-id="3847" fill="#8a8a8a"></path></svg>