<?xml version="1.0" standalone="no"?><!DOCTYPE svg PUBLIC "-//W3C//DTD SVG 1.1//EN" "http://www.w3.org/Graphics/SVG/1.1/DTD/svg11.dtd"><svg t="1666413787073" class="icon" viewBox="0 0 1024 1024" version="1.1" xmlns="http://www.w3.org/2000/svg" p-id="15095" xmlns:xlink="http://www.w3.org/1999/xlink" width="32" height="32"><path d="M6 54.6h1015.3V87H6zM6 261.7h918v32.4H6zM6 473.7h360.7v32.4H6zM6 648.3h462.7v32.4H6zM6 865.3h530.3v29.9H6zM968.6 653.3v-27.4c0-110.7-90.1-200.8-200.8-200.8-110.7 0-200.8 90.1-200.8 200.8v27.4c0 110.7 90.1 200.8 200.8 200.8 47.2 0 90.5-16.5 124.8-43.8l74.1 67.1 15.1-16.7-72.2-65.4c36.4-36.3 59-86.5 59-142z m-386.6 0v-27.4C582 523.4 665.3 440 767.8 440s185.8 83.4 185.8 185.8v27.4c0 102.5-83.4 185.8-185.8 185.8S582 755.8 582 653.3z" fill="" p-id="15096"></path></svg>