<?xml version="1.0" standalone="no"?><!DOCTYPE svg PUBLIC "-//W3C//DTD SVG 1.1//EN" "http://www.w3.org/Graphics/SVG/1.1/DTD/svg11.dtd"><svg t="1666084543656" class="icon" viewBox="0 0 1024 1024" version="1.1" xmlns="http://www.w3.org/2000/svg" p-id="21213" xmlns:xlink="http://www.w3.org/1999/xlink" width="64" height="64"><path d="M603.022222 500.622222a172.942222 172.942222 0 0 1 59.392-128 174.876444 174.876444 0 0 0 26.510222-93.411555 177.152 177.152 0 1 0-354.304 0 175.331556 175.331556 0 0 0 31.288889 101.034666A166.570667 166.570667 0 0 1 420.181333 500.622222a178.176 178.176 0 0 1-31.857777 102.4h247.352888A183.978667 183.978667 0 0 1 603.022222 500.622222zM170.666667 671.288889h682.666666v136.533333H170.666667zM170.666667 864.711111h682.666666v56.888889H170.666667z" fill="#118e44" p-id="21214"></path></svg>