<?xml version="1.0" standalone="no"?><!DOCTYPE svg PUBLIC "-//W3C//DTD SVG 1.1//EN" "http://www.w3.org/Graphics/SVG/1.1/DTD/svg11.dtd"><svg t="1666084453263" class="icon" viewBox="0 0 1024 1024" version="1.1" xmlns="http://www.w3.org/2000/svg" p-id="20152" xmlns:xlink="http://www.w3.org/1999/xlink" width="64" height="64"><path d="M639 254c0 1.9 0 3.7-0.1 5.6 0 0.6 0 1.2-0.1 1.8-0.1 1.3-0.1 2.6-0.2 3.9 0 0.7-0.1 1.3-0.1 1.9-0.1 1.3-0.2 2.6-0.3 3.8-0.1 0.6-0.1 1.2-0.2 1.8-0.2 1.7-0.4 3.5-0.6 5.2v0.3c-0.2 1.8-0.5 3.6-0.8 5.3l-0.3 1.8-0.6 3.6c-0.1 0.7-0.3 1.3-0.4 2-0.2 1.2-0.5 2.3-0.7 3.5-0.1 0.6-0.3 1.2-0.4 1.8-0.3 1.5-0.7 3-1.1 4.6-0.1 0.3-0.1 0.6-0.2 0.9-0.4 1.6-0.9 3.2-1.3 4.8-0.2 0.6-0.4 1.2-0.6 1.9-0.3 1.1-0.7 2.2-1 3.3-0.2 0.7-0.4 1.4-0.7 2-0.4 1.1-0.7 2.1-1.1 3.1-0.2 0.6-0.5 1.3-0.7 1.9l-1.5 3.9-0.6 1.5c-0.6 1.4-1.1 2.8-1.7 4.2-0.3 0.6-0.6 1.3-0.8 1.9-0.4 1-0.9 1.9-1.3 2.9-0.3 0.7-0.6 1.4-1 2-0.5 0.9-0.9 1.9-1.4 2.8-0.3 0.6-0.6 1.3-1 1.9-0.6 1.1-1.1 2.2-1.7 3.3-0.3 0.6-0.7 1.3-1 1.9-0.7 1.3-1.4 2.5-2.1 3.7-0.4 0.6-0.7 1.2-1.1 1.9-0.5 0.9-1 1.8-1.6 2.6-0.4 0.7-0.8 1.3-1.2 2-0.5 0.8-1.1 1.7-1.6 2.5-0.4 0.6-0.8 1.2-1.2 1.9l-2.1 3-1.2 1.8c-0.8 1.2-1.7 2.3-2.6 3.5-0.4 0.6-0.9 1.1-1.3 1.7-0.6 0.8-1.3 1.6-1.9 2.4-0.5 0.6-0.9 1.2-1.4 1.7-0.6 0.8-1.3 1.6-2 2.4-0.5 0.5-0.9 1.1-1.4 1.6-0.8 1-1.7 1.9-2.5 2.9-0.3 0.4-0.7 0.8-1 1.1-1.1 1.2-2.2 2.4-3.3 3.5-0.4 0.5-0.9 0.9-1.4 1.4-0.8 0.8-1.5 1.6-2.3 2.3l-1.5 1.5c-0.8 0.8-1.6 1.5-2.4 2.3-0.5 0.4-0.9 0.9-1.4 1.3-1 1-2.1 1.9-3.2 2.9-0.2 0.2-0.4 0.4-0.7 0.6l-3.9 3.3c-0.4 0.3-0.8 0.7-1.2 1-1 0.8-1.9 1.5-2.9 2.3-0.5 0.4-0.9 0.7-1.4 1.1-1 0.8-2 1.5-3 2.2-0.4 0.3-0.8 0.6-1.3 0.9-1.4 1-2.7 1.9-4.1 2.9-0.1 0-0.1 0.1-0.1 0.1-4.4 3-8.9 5.8-13.6 8.4-2.3 1.3-4.7 2.5-7 3.8-2.4 1.2-4.8 2.4-7.2 3.5l-1.8 0.8c-1.2 0.5-2.5 1.1-3.7 1.6-1.2 0.5-2.5 1-3.7 1.5-1.3 0.5-2.5 1-3.8 1.4-0.6 0.2-1.3 0.5-1.9 0.7-1.3 0.4-2.5 0.9-3.8 1.3-0.6 0.2-1.3 0.4-1.9 0.6l-3.9 1.2c-1.9 0.6-3.9 1.1-5.9 1.6-1.9 0.5-3.7 0.9-5.6 1.4-0.3 0.1-0.5 0.1-0.8 0.2-1.5 0.3-3 0.7-4.5 1l-1.8 0.3c-1.2 0.2-2.5 0.5-3.7 0.7-0.6 0.1-1.3 0.2-1.9 0.3-1.4 0.2-2.9 0.4-4.3 0.6-0.4 0-0.8 0.1-1.2 0.2l-5.4 0.6c-0.6 0.1-1.1 0.1-1.7 0.2l-3.9 0.3c-0.7 0-1.3 0.1-2 0.1-1.3 0.1-2.6 0.1-3.9 0.2-0.6 0-1.2 0.1-1.8 0.1-1.9 0.1-3.8 0.1-5.6 0.1-1.5 0-2.9 0-4.4-0.1h-1.2c-1.3 0-2.5-0.1-3.8-0.1h-0.6c-1.4-0.1-2.9-0.2-4.3-0.3-0.4 0-0.7-0.1-1.1-0.1l-3.6-0.3c-0.3 0-0.6-0.1-0.8-0.1-1.4-0.1-2.8-0.3-4.2-0.5-0.3 0-0.6-0.1-0.9-0.1-1.2-0.2-2.3-0.3-3.5-0.5-0.3 0-0.6-0.1-1-0.1-1.4-0.2-2.8-0.4-4.2-0.7-0.3-0.1-0.5-0.1-0.8-0.1-1.2-0.2-2.3-0.4-3.5-0.7-0.4-0.1-0.7-0.1-1.1-0.2-1.4-0.3-2.7-0.6-4-0.9-0.2 0-0.4-0.1-0.6-0.1-1.2-0.3-2.3-0.6-3.5-0.9l-1.2-0.3c-1.1-0.3-2.3-0.6-3.4-0.9-0.3-0.1-0.7-0.2-1-0.3-0.3-0.1-0.7-0.2-1-0.3-0.7-0.2-1.3-0.4-2-0.6-0.6-0.2-1.3-0.4-2-0.6-0.6-0.2-1.3-0.4-2-0.6-0.6-0.2-1.3-0.4-1.9-0.6-0.6-0.2-1.3-0.5-1.9-0.7-0.6-0.2-1.3-0.4-1.9-0.7-1-0.4-1.9-0.7-2.9-1.1-1-0.4-1.9-0.7-2.9-1.1-0.6-0.2-1.2-0.5-1.7-0.7-1.3-0.5-2.6-1.1-3.9-1.7-0.6-0.3-1.2-0.6-1.9-0.8-0.1-0.1-0.2-0.1-0.3-0.1-1.1-0.5-2.1-1-3.2-1.5-0.1 0-0.1-0.1-0.2-0.1l-3.9-1.9c-1.2-0.6-2.4-1.2-3.6-1.9-12-7.2-16.3-9.8-18.5-11.3-0.1 0-0.1-0.1-0.2-0.1-0.1-0.1-0.2-0.1-0.2-0.2-0.1 0-0.1-0.1-0.2-0.1s-0.2-0.1-0.2-0.1c-0.1-0.1-0.3-0.2-0.4-0.3-0.2-0.1-0.4-0.3-0.6-0.4-1.4-1-2.9-2.1-4.3-3.1-0.3-0.2-0.6-0.4-0.8-0.6-1.1-0.8-2.2-1.7-3.2-2.5-0.4-0.3-0.8-0.7-1.2-1-1-0.8-1.9-1.6-2.8-2.3-0.4-0.3-0.8-0.7-1.3-1.1-1-0.9-2-1.7-3-2.6-0.3-0.3-0.6-0.6-0.9-0.8-1.3-1.2-2.6-2.3-3.8-3.5-0.1-0.1-0.2-0.2-0.4-0.3-1.1-1.1-2.2-2.1-3.3-3.3l-1.1-1.1c-0.8-0.9-1.7-1.7-2.5-2.6-0.4-0.4-0.8-0.9-1.2-1.3-0.8-0.9-1.6-1.7-2.4-2.6-0.4-0.4-0.8-0.8-1.1-1.3-0.9-1.1-1.8-2.1-2.7-3.2-0.2-0.2-0.4-0.5-0.6-0.7-1.1-1.3-2.2-2.7-3.2-4-0.3-0.4-0.6-0.8-0.9-1.1-0.8-1-1.5-2-2.3-3-0.4-0.5-0.7-1-1.1-1.5-0.7-0.9-1.3-1.8-2-2.8-0.4-0.5-0.7-1-1.1-1.5-0.7-1-1.3-2-2-3-0.3-0.4-0.6-0.9-0.9-1.3-0.9-1.4-1.8-2.9-2.7-4.3l-0.3-0.6c-0.8-1.3-1.5-2.6-2.3-3.9l-0.9-1.5c-0.6-1-1.1-2-1.7-3-0.3-0.6-0.6-1.1-0.9-1.7-0.5-1-1-2-1.6-3-0.3-0.6-0.5-1.1-0.8-1.6-0.6-1.2-1.1-2.4-1.7-3.6-0.2-0.4-0.3-0.7-0.5-1.1-0.7-1.6-1.4-3.1-2.1-4.7-0.2-0.4-0.4-0.9-0.5-1.3-0.5-1.2-0.9-2.3-1.4-3.5-0.2-0.6-0.5-1.2-0.7-1.8-0.4-1.1-0.8-2.1-1.2-3.2l-0.6-1.8c-0.4-1.1-0.8-2.3-1.1-3.4-0.2-0.5-0.3-1-0.5-1.6-0.5-1.7-1-3.3-1.5-5 0-0.1-0.1-0.2-0.1-0.4-0.4-1.6-0.9-3.1-1.3-4.7-0.1-0.6-0.3-1.1-0.4-1.7-0.3-1.2-0.6-2.3-0.8-3.5-0.1-0.6-0.3-1.3-0.4-1.9-0.2-1.1-0.5-2.3-0.7-3.5-0.1-0.6-0.2-1.2-0.4-1.8-0.2-1.3-0.5-2.7-0.7-4l-0.2-1.3c-0.3-1.8-0.5-3.5-0.7-5.3-0.1-0.4-0.1-0.9-0.2-1.3-0.2-1.3-0.3-2.7-0.4-4-0.1-0.6-0.1-1.3-0.2-1.9l-0.3-3.6c0-0.7-0.1-1.3-0.1-2-0.1-1.3-0.1-2.5-0.2-3.8 0-0.6 0-1.2-0.1-1.7 0-1.8-0.1-3.7-0.1-5.5 0-105 85-190 190-190S639 149 639 254zM696.9 928c0.1 0 0.1 0 0 0z m0 0z m-85.9 0l-65-56.2c-4.2-3.6-8.3-7.4-12.3-11.4-42-42-66-97.9-67.6-157.2l-0.8-31.2H96h369.9l5.6-25.1c0.5-2.1 1-4.2 1.5-6.2-4.5 18-6.9 36.9-6.9 56.3 0 127.2 103.4 230.8 230.6 231-6.1 0-12.1-0.3-18-0.7l-34.5-2.7v3.5H611z m86.2 0z m-0.5 0z m0.6 0c127.1-0.2 230.5-103.6 230.7-230.6-0.1 61.6-24.1 119.4-67.7 163-43.5 43.5-101.4 67.5-163 67.6zM928 697.4c0-0.1 0-0.1 0 0z m0-0.2c0-0.1 0-0.1 0 0z m0-0.2c0-127.4-103.7-231-231.1-231C824.3 466 928 569.6 928 697zM563.6 507l-0.5-1.1 27.4-13.9c-15.4 8-29.8 17.7-42.9 28.9l16-13.9z m41.1-21.8c28.9-12.7 59.7-19.2 91.7-19.2-32.6 0.1-63.6 6.9-91.7 19.2z m91.7-19.2c0.1 0 0.1 0 0 0z m0.2 0c0.1 0 0.1 0 0 0z" fill="#d81e06" p-id="20153"></path><path d="M339.2 409.1L231.3 640H64v320h612v-0.8c6.9 0.5 13.9 0.8 20.9 0.8 70.3 0 136.3-27.4 186-77 49.7-49.7 77.1-115.7 77.1-186 0-145-118-263-263.1-263-42.6 0-82.9 10.2-118.5 28.3l-23.1-50.8c-4.4 3-8.9 5.8-13.6 8.4-2.3 1.3-4.7 2.6-7 3.8-2.4 1.2-4.8 2.4-7.2 3.5l-1.8 0.8c-1.2 0.6-2.5 1.1-3.7 1.6-1.2 0.5-2.5 1-3.7 1.5-1.3 0.5-2.5 1-3.8 1.4-0.6 0.2-1.3 0.5-1.9 0.7-1.3 0.4-2.5 0.9-3.8 1.3-0.6 0.2-1.3 0.4-1.9 0.6l-3.9 1.2c-1.9 0.6-3.9 1.1-5.9 1.6l27.5 60.6c-41.8 36.3-72 85.6-84.4 141.5H301.9l95-203.2c-0.1 0-0.3-0.1-0.4-0.1-0.3-0.1-0.7-0.2-1-0.3-0.7-0.2-1.3-0.4-2-0.6-0.6-0.2-1.3-0.4-2-0.6-0.6-0.2-1.3-0.4-2-0.6-0.6-0.2-1.3-0.4-1.9-0.6-0.6-0.2-1.3-0.5-1.9-0.7-0.6-0.2-1.3-0.4-1.9-0.7-1-0.4-1.9-0.7-2.9-1.1-1-0.4-1.9-0.7-2.9-1.1-0.6-0.2-1.2-0.5-1.7-0.7-1.3-0.5-2.6-1.1-3.9-1.7-0.6-0.3-1.2-0.6-1.9-0.8-0.1-0.1-0.2-0.1-0.3-0.1-1.1-0.5-2.1-1-3.2-1.5-0.1 0-0.1-0.1-0.2-0.1l-3.9-1.9c-1.2-0.6-2.4-1.2-3.6-1.9-6.4-3.4-12.5-7.2-18.5-11.3-0.1 0-0.1-0.1-0.2-0.1-0.1-0.1-0.2-0.1-0.2-0.2-0.1 0-0.1-0.1-0.2-0.1s-0.2-0.1-0.2-0.1c-0.1-0.1-0.3-0.2-0.4-0.3 0-0.2-0.2-0.4-0.4-0.5zM696.9 896C587.3 896 498 806.7 498 697s89.3-199 198.9-199C806.7 498 896 587.3 896 697s-89.3 199-199.1 199zM128 896V704h306.1c1.8 67.6 28.9 131 76.9 179 4.5 4.5 9.2 8.9 14 13H128z" fill="#d81e06" p-id="20154"></path><path d="M821.7 617.5l-45.2-45.2-79.5 79.4-79.5-79.4-45.2 45.2 79.4 79.5-79.4 79.5 45.2 45.2 79.5-79.4 79.5 79.4 45.2-45.2-79.4-79.5z" fill="#d81e06" p-id="20155"></path></svg>