<?xml version="1.0" standalone="no"?><!DOCTYPE svg PUBLIC "-//W3C//DTD SVG 1.1//EN" "http://www.w3.org/Graphics/SVG/1.1/DTD/svg11.dtd"><svg t="1666413823729" class="icon" viewBox="0 0 1024 1024" version="1.1" xmlns="http://www.w3.org/2000/svg" p-id="16865" xmlns:xlink="http://www.w3.org/1999/xlink" width="32" height="32"><path d="M204.34 306.89h205.11c33.98 0.14 61.42 27.8 61.28 61.78-0.14 33.79-27.49 61.15-61.28 61.28H204.34c-33.98-0.14-61.42-27.8-61.28-61.78 0.13-33.78 27.49-61.14 61.28-61.28z m369.2 328.18h205.1c33.98 0 61.53 27.55 61.53 61.53 0 33.98-27.55 61.53-61.53 61.53H573.53c-33.98 0-61.53-27.55-61.53-61.53 0-33.99 27.55-61.53 61.54-61.53z" fill="#2E3133" opacity=".3" p-id="16866"></path><path d="M717.1 470.98c-67.97 0-123.06-55.1-123.06-123.07s55.1-123.06 123.07-123.06 123.06 55.1 123.06 123.07c0 67.96-55.09 123.06-123.07 123.06 0.01 0 0.01 0 0 0zM265.87 799.15c-67.97 0-123.07-55.1-123.07-123.06s55.1-123.07 123.07-123.07 123.07 55.1 123.07 123.07c-0.01 67.96-55.1 123.06-123.07 123.06z" fill="#2E3133" p-id="16867"></path></svg>